HIERARCHY
ROOT Hips
{
	OFFSET 0.000000 97.167313 0.000000
	CHANNELS 6 Xposition Yposition Zposition Xrotation Yrotation Zrotation
	JOINT Spine
	{
		OFFSET 0.000000 13.784798 0.064400
		CHANNELS 3 Xrotation Yrotation Zrotation
		JOINT Spine1
		{
			OFFSET 0.000000 12.037903 0.404700
			CHANNELS 3 Xrotation Yrotation Zrotation
			JOINT Spine2
			{
				OFFSET 0.000000 17.795601 0.420200
				CHANNELS 3 Xrotation Yrotation Zrotation
				JOINT Neck
				{
					OFFSET 0.000000 39.131302 11.954600
					CHANNELS 3 Xrotation Yrotation Zrotation
					JOINT Head
					{
						OFFSET 0.000000 14.456192 15.627699
						CHANNELS 3 Xrotation Yrotation Zrotation
						JOINT HeadTop_End
						{
							OFFSET 0.000000 15.703506 7.603401
							CHANNELS 3 Xrotation Yrotation Zrotation
							End Site
							{
								OFFSET 0.000000 17.447403 0.000000
							}
						}
					}
				}
				JOINT LeftShoulder
				{
					OFFSET 17.399500 24.608795 1.168800
					CHANNELS 3 Xrotation Yrotation Zrotation
					JOINT LeftArm
					{
						OFFSET 18.980635 5.765305 1.818600
						CHANNELS 3 Xrotation Yrotation Zrotation
						JOINT LeftForeArm
						{
							OFFSET 49.290169 0.000000 0.000000
							CHANNELS 3 Xrotation Yrotation Zrotation
							JOINT LeftHand
							{
								OFFSET 31.562012 0.000000 0.000000
								CHANNELS 3 Xrotation Yrotation Zrotation
								JOINT LeftHandThumb1
								{
									OFFSET 6.133995 -4.388519 7.076070
									CHANNELS 3 Xrotation Yrotation Zrotation
									JOINT LeftHandThumb2
									{
										OFFSET 6.037666 -3.485840 3.485847
										CHANNELS 3 Xrotation Yrotation Zrotation
										JOINT LeftHandThumb3
										{
											OFFSET 6.496506 -3.750763 3.750761
											CHANNELS 3 Xrotation Yrotation Zrotation
											JOINT LeftHandThumb4
											{
												OFFSET 5.616882 -3.242905 3.242910
												CHANNELS 3 Xrotation Yrotation Zrotation
												End Site
												{
													OFFSET -1.254608 7.132141 0.375429
												}
											}
										}
									}
								}
								JOINT LeftHandPinky1
								{
									OFFSET 18.920792 -0.453171 -11.426712
									CHANNELS 3 Xrotation Yrotation Zrotation
									JOINT LeftHandPinky2
									{
										OFFSET 4.919586 0.000000 0.000000
										CHANNELS 3 Xrotation Yrotation Zrotation
										JOINT LeftHandPinky3
										{
											OFFSET 5.233047 0.000000 0.000000
											CHANNELS 3 Xrotation Yrotation Zrotation
											JOINT LeftHandPinky4
											{
												OFFSET 5.571716 0.000000 0.000000
												CHANNELS 3 Xrotation Yrotation Zrotation
												End Site
												{
													OFFSET -3.459808 4.342407 -0.466164
												}
											}
										}
									}
								}
								JOINT LeftHandRing1
								{
									OFFSET 22.726120 -0.094986 -6.500475
									CHANNELS 3 Xrotation Yrotation Zrotation
									JOINT LeftHandRing2
									{
										OFFSET 6.408615 0.000000 0.000000
										CHANNELS 3 Xrotation Yrotation Zrotation
										JOINT LeftHandRing3
										{
											OFFSET 6.150223 0.000000 0.000000
											CHANNELS 3 Xrotation Yrotation Zrotation
											JOINT LeftHandRing4
											{
												OFFSET 6.145386 0.000000 0.000000
												CHANNELS 3 Xrotation Yrotation Zrotation
												End Site
												{
													OFFSET -3.671402 4.923981 -0.202372
												}
											}
										}
									}
								}
								JOINT LeftHandMiddle1
								{
									OFFSET 23.373947 0.000000 0.000001
									CHANNELS 3 Xrotation Yrotation Zrotation
									JOINT LeftHandMiddle2
									{
										OFFSET 6.996567 0.000000 0.000000
										CHANNELS 3 Xrotation Yrotation Zrotation
										JOINT LeftHandMiddle3
										{
											OFFSET 7.015945 0.000000 0.000000
											CHANNELS 3 Xrotation Yrotation Zrotation
											JOINT LeftHandMiddle4
											{
												OFFSET 7.721573 0.000000 0.000000
												CHANNELS 3 Xrotation Yrotation Zrotation
												End Site
												{
													OFFSET -4.651108 6.158463 0.251582
												}
											}
										}
									}
								}
								JOINT LeftHandIndex1
								{
									OFFSET 21.310577 -0.490082 6.209344
									CHANNELS 3 Xrotation Yrotation Zrotation
									JOINT LeftHandIndex2
									{
										OFFSET 7.536453 0.000000 0.000000
										CHANNELS 3 Xrotation Yrotation Zrotation
										JOINT LeftHandIndex3
										{
											OFFSET 7.512344 0.000000 0.000000
											CHANNELS 3 Xrotation Yrotation Zrotation
											JOINT LeftHandIndex4
											{
												OFFSET 10.212402 0.000000 0.000001
												CHANNELS 3 Xrotation Yrotation Zrotation
												End Site
												{
													OFFSET -5.180801 8.690506 1.388433
												}
											}
										}
									}
								}
							}
						}
					}
				}
				JOINT RightShoulder
				{
					OFFSET -17.399500 24.608795 1.168800
					CHANNELS 3 Xrotation Yrotation Zrotation
					JOINT RightArm
					{
						OFFSET -18.980635 5.765305 1.818600
						CHANNELS 3 Xrotation Yrotation Zrotation
						JOINT RightForeArm
						{
							OFFSET -49.290169 0.000000 0.000000
							CHANNELS 3 Xrotation Yrotation Zrotation
							JOINT RightHand
							{
								OFFSET -31.562012 0.000000 0.000000
								CHANNELS 3 Xrotation Yrotation Zrotation
								JOINT RightHandThumb1
								{
									OFFSET -6.133995 -4.388519 7.076070
									CHANNELS 3 Xrotation Yrotation Zrotation
									JOINT RightHandThumb2
									{
										OFFSET -6.037666 -3.485840 3.485847
										CHANNELS 3 Xrotation Yrotation Zrotation
										JOINT RightHandThumb3
										{
											OFFSET -6.496506 -3.750763 3.750761
											CHANNELS 3 Xrotation Yrotation Zrotation
											JOINT RightHandThumb4
											{
												OFFSET -5.616882 -3.242905 3.242910
												CHANNELS 3 Xrotation Yrotation Zrotation
												End Site
												{
													OFFSET 1.254608 7.132141 0.375429
												}
											}
										}
									}
								}
								JOINT RightHandIndex1
								{
									OFFSET -21.310577 -0.490082 6.209344
									CHANNELS 3 Xrotation Yrotation Zrotation
									JOINT RightHandIndex2
									{
										OFFSET -7.536453 0.000000 0.000000
										CHANNELS 3 Xrotation Yrotation Zrotation
										JOINT RightHandIndex3
										{
											OFFSET -7.512344 0.000000 0.000000
											CHANNELS 3 Xrotation Yrotation Zrotation
											JOINT RightHandIndex4
											{
												OFFSET -10.212402 0.000000 0.000001
												CHANNELS 3 Xrotation Yrotation Zrotation
												End Site
												{
													OFFSET 5.180801 8.690506 1.388433
												}
											}
										}
									}
								}
								JOINT RightHandMiddle1
								{
									OFFSET -23.373947 0.000000 0.000001
									CHANNELS 3 Xrotation Yrotation Zrotation
									JOINT RightHandMiddle2
									{
										OFFSET -6.996567 0.000000 0.000000
										CHANNELS 3 Xrotation Yrotation Zrotation
										JOINT RightHandMiddle3
										{
											OFFSET -7.015945 0.000000 0.000000
											CHANNELS 3 Xrotation Yrotation Zrotation
											JOINT RightHandMiddle4
											{
												OFFSET -7.721573 0.000000 0.000000
												CHANNELS 3 Xrotation Yrotation Zrotation
												End Site
												{
													OFFSET 4.651108 6.158463 0.251582
												}
											}
										}
									}
								}
								JOINT RightHandRing1
								{
									OFFSET -22.726120 -0.094986 -6.500475
									CHANNELS 3 Xrotation Yrotation Zrotation
									JOINT RightHandRing2
									{
										OFFSET -6.408615 0.000000 0.000000
										CHANNELS 3 Xrotation Yrotation Zrotation
										JOINT RightHandRing3
										{
											OFFSET -6.150223 0.000000 0.000000
											CHANNELS 3 Xrotation Yrotation Zrotation
											JOINT RightHandRing4
											{
												OFFSET -6.145386 0.000000 0.000000
												CHANNELS 3 Xrotation Yrotation Zrotation
												End Site
												{
													OFFSET 3.671402 4.923981 -0.202372
												}
											}
										}
									}
								}
								JOINT RightHandPinky1
								{
									OFFSET -18.920792 -0.453171 -11.426712
									CHANNELS 3 Xrotation Yrotation Zrotation
									JOINT RightHandPinky2
									{
										OFFSET -4.919586 0.000000 0.000000
										CHANNELS 3 Xrotation Yrotation Zrotation
										JOINT RightHandPinky3
										{
											OFFSET -5.233047 0.000000 0.000000
											CHANNELS 3 Xrotation Yrotation Zrotation
											JOINT RightHandPinky4
											{
												OFFSET -5.571716 0.000000 0.000000
												CHANNELS 3 Xrotation Yrotation Zrotation
												End Site
												{
													OFFSET 3.459808 4.342407 -0.466164
												}
											}
										}
									}
								}
							}
						}
					}
				}
			}
		}
	}
	JOINT LeftUpLeg
	{
		OFFSET 19.899099 -7.885101 -3.429500
		CHANNELS 3 Xrotation Yrotation Zrotation
		JOINT LeftLeg
		{
			OFFSET 1.745560 -36.997807 10.304700
			CHANNELS 3 Xrotation Yrotation Zrotation
			JOINT LeftFoot
			{
				OFFSET -1.745558 -29.803308 -13.615400
				CHANNELS 3 Xrotation Yrotation Zrotation
				JOINT LeftToeBase
				{
					OFFSET 1.181900 -18.539904 15.226099
					CHANNELS 3 Xrotation Yrotation Zrotation
					JOINT LeftToe_End
					{
						OFFSET -0.863701 1.402801 16.534700
						CHANNELS 3 Xrotation Yrotation Zrotation
						End Site
						{
							OFFSET 0.000000 16.616566 0.000000
						}
					}
				}
			}
		}
	}
	JOINT RightUpLeg
	{
		OFFSET -19.899099 -7.885101 -3.429500
		CHANNELS 3 Xrotation Yrotation Zrotation
		JOINT RightLeg
		{
			OFFSET -1.745560 -36.997807 10.304700
			CHANNELS 3 Xrotation Yrotation Zrotation
			JOINT RightFoot
			{
				OFFSET 1.745558 -29.803308 -13.615400
				CHANNELS 3 Xrotation Yrotation Zrotation
				JOINT RightToeBase
				{
					OFFSET -1.181900 -18.539904 15.226099
					CHANNELS 3 Xrotation Yrotation Zrotation
					JOINT RightToe_End
					{
						OFFSET 0.863701 1.402801 16.534700
						CHANNELS 3 Xrotation Yrotation Zrotation
						End Site
						{
							OFFSET 0.000000 16.616566 0.000000
						}
					}
				}
			}
		}
	}
}
MOTION
Frames: 4
Frame Time: 0.033333
0.107593 91.492661 1.921822 -7.169033 -4.325616 3.376428 5.287675 2.146492 -2.480689 1.478231 0.730365 -0.788770 1.440798 0.721971 -0.741219 2.260305 5.360285 1.627123 3.299470 -10.639881 2.336762 0.000000 -0.000000 0.000000 -0.595442 -16.331995 -20.041821 11.139994 0.583274 -33.762393 0.001882 -89.545542 0.000713 -131.220816 -7.501385 10.656120 -12.800132 -17.470137 4.121645 1.000138 0.731310 -1.438307 -7.335820 -0.421715 13.147356 0.000001 -0.000002 -0.000002 6.410331 8.363722 -80.414576 1.722718 4.149885 -45.074413 0.636275 2.657130 -26.928207 0.000001 0.000002 -0.000009 4.717032 8.075520 -77.582275 2.056307 4.456871 -49.517659 1.539983 3.959696 -42.490617 0.000001 -0.000000 -0.000002 2.434379 7.296046 -69.364068 3.297844 5.266368 -64.088662 0.787103 2.934908 -30.019569 0.000001 0.000001 0.000004 -3.532564 4.254353 -63.954592 3.402104 5.315520 -65.218929 1.034632 3.326104 -34.549849 -0.000002 -0.000000 0.000001 0.754163 18.436595 11.539482 10.691746 23.557100 38.362205 -0.000240 97.963866 0.000255 -34.546899 -20.180673 22.179120 20.470553 7.475584 18.843585 4.151722 -12.160928 -33.847993 -6.346166 -41.944028 -36.535491 -0.000001 -0.000001 0.000004 -0.887086 1.428001 12.684523 1.917416 -3.767472 53.934312 3.057987 -4.374546 69.896789 -0.000000 0.000000 -0.000001 0.770905 -5.199591 54.618830 5.563882 -4.568233 101.238580 4.771459 -4.655764 91.407896 0.000000 -0.000001 -0.000009 6.934479 -8.544290 63.908775 2.909302 -4.317401 67.934721 1.862851 -3.727194 53.099448 0.000003 0.000004 -0.000003 8.373405 -8.171736 73.989937 2.173677 -3.940962 57.745397 1.042020 -2.937902 39.049885 -0.000003 0.000000 0.000007 -10.545147 11.227762 7.868036 14.364817 6.170343 0.468392 4.927987 1.189721 -7.902368 -0.000020 0.000002 -0.000001 -0.000000 0.000002 0.000000 10.551789 -15.766944 -7.204233 19.428854 -7.463035 -2.685550 -21.787837 -8.168806 9.898802 -2.342325 -0.000002 0.000001 -0.000000 -0.000002 0.000000 
0.408864 90.935242 1.865058 -7.004103 -4.629757 3.403004 5.283354 2.008065 -2.488489 1.478231 0.545823 -0.771255 1.440799 0.547799 -0.686543 2.278950 5.079156 1.446694 3.068804 -10.293894 2.008880 0.000000 0.000000 -0.000000 -0.595442 -16.331995 -20.041824 11.673885 1.386665 -33.751076 -0.210749 -89.979614 -0.193237 -131.507192 -7.772094 10.489920 -12.800131 -17.470132 4.121642 1.000136 0.731312 -1.438311 -7.335820 -0.421716 13.147360 -0.000001 0.000001 -0.000001 6.410329 8.363725 -80.414576 1.722718 4.149885 -45.074409 0.636275 2.657130 -26.928207 0.000001 0.000000 -0.000002 4.717030 8.075519 -77.582288 2.056308 4.456872 -49.517656 1.539982 3.959698 -42.490617 -0.000000 -0.000002 0.000001 2.434378 7.296046 -69.364075 3.297842 5.266366 -64.088662 0.787104 2.934910 -30.019566 -0.000000 -0.000001 0.000008 -3.532568 4.254353 -63.954592 3.402100 5.315523 -65.218922 1.034631 3.326107 -34.549853 -0.000000 -0.000001 0.000001 0.748015 18.465159 11.541427 10.484199 24.073584 38.792958 -0.000181 97.573794 0.000221 -34.246872 -20.433756 22.645892 20.470553 7.475582 18.843589 4.151723 -12.160926 -33.847996 -6.346170 -41.944028 -36.535484 0.000003 -0.000001 -0.000000 -0.887084 1.427997 12.684526 1.917419 -3.767476 53.934309 3.057987 -4.374546 69.896789 -0.000001 0.000002 -0.000001 0.770906 -5.199590 54.618823 5.563883 -4.568234 101.238587 4.771461 -4.655765 91.407896 -0.000002 0.000000 -0.000008 6.934477 -8.544290 63.908775 2.909306 -4.317398 67.934714 1.862850 -3.727193 53.099455 -0.000001 0.000003 -0.000005 8.373405 -8.171734 73.989943 2.173678 -3.940961 57.745397 1.042018 -2.937900 39.049882 -0.000000 -0.000001 0.000004 -11.615225 11.113211 7.670077 16.348056 5.778422 0.629873 3.870413 1.994011 -7.906845 -0.000027 -0.000005 0.000000 -0.000000 0.000002 0.000000 9.343444 -15.529279 -7.856761 21.373617 -7.158947 -2.610014 -22.678129 -8.315041 10.118277 -2.342325 -0.000002 0.000001 0.000000 -0.000001 -0.000000 
0.660138 90.459572 1.790256 -6.837443 -4.928403 3.460824 5.280476 1.885921 -2.523398 1.478231 0.373631 -0.754921 1.440798 0.385386 -0.635566 2.296012 4.796857 1.267087 2.850222 -9.940150 1.700444 -0.000000 0.000000 -0.000000 -0.595442 -16.331993 -20.041821 12.260831 2.275651 -33.762622 -0.006601 -90.455235 -0.005638 -131.816244 -8.065874 10.296759 -12.800127 -17.470135 4.121645 1.000134 0.731309 -1.438307 -7.335820 -0.421715 13.147360 0.000003 -0.000000 0.000003 6.410331 8.363726 -80.414576 1.722720 4.149885 -45.074416 0.636273 2.657129 -26.928207 0.000001 0.000003 -0.000000 4.717032 8.075522 -77.582281 2.056309 4.456876 -49.517663 1.539982 3.959697 -42.490614 -0.000001 0.000000 0.000002 2.434378 7.296047 -69.364075 3.297844 5.266364 -64.088662 0.787101 2.934906 -30.019569 0.000001 -0.000001 0.000004 -3.532563 4.254355 -63.954586 3.402097 5.315526 -65.218922 1.034632 3.326104 -34.549849 -0.000000 -0.000000 0.000001 0.745095 18.495005 11.543409 10.252233 24.630847 39.267434 -0.000172 97.153109 0.000233 -33.910260 -20.707026 23.160459 20.470552 7.475588 18.843589 4.151718 -12.160926 -33.847989 -6.346159 -41.944028 -36.535484 0.000001 0.000002 -0.000001 -0.887087 1.428001 12.684526 1.917420 -3.767463 53.934309 3.057989 -4.374545 69.896789 -0.000002 0.000000 -0.000001 0.770904 -5.199594 54.618823 5.563883 -4.568235 101.238587 4.771459 -4.655765 91.407896 -0.000000 0.000001 -0.000001 6.934475 -8.544290 63.908769 2.909305 -4.317398 67.934721 1.862852 -3.727197 53.099455 -0.000001 -0.000000 -0.000005 8.373403 -8.171733 73.989937 2.173677 -3.940960 57.745397 1.042022 -2.937902 39.049882 -0.000001 0.000001 0.000002 -12.510715 11.040551 7.448761 17.923388 5.317305 0.737098 3.052995 2.854231 -7.859523 -0.000118 0.000003 0.000000 -0.000000 0.000002 0.000000 8.230881 -15.298077 -8.452921 23.054397 -6.884736 -2.550688 -23.420758 -8.421955 10.288065 -2.342325 -0.000003 0.000001 0.000000 0.000002 -0.000000 
0.927067 90.004868 1.717247 -6.670805 -5.239157 3.525594 5.277918 1.751355 -2.567972 1.476995 0.189088 -0.737423 1.440798 0.211210 -0.580904 2.311597 4.515614 1.086977 2.627177 -9.591968 1.375070 0.000000 0.000000 -0.000000 -0.595442 -16.331997 -20.041822 12.881845 3.223691 -33.784971 -0.002704 -90.972300 -0.002705 -132.137919 -8.383295 10.100218 -12.800132 -17.470138 4.121643 1.000136 0.731311 -1.438313 -7.335818 -0.421719 13.147359 -0.000000 0.000001 -0.000001 6.410326 8.363725 -80.414583 1.722719 4.149883 -45.074413 0.636271 2.657130 -26.928205 -0.000000 0.000004 -0.000002 4.717030 8.075520 -77.582288 2.056308 4.456875 -49.517659 1.539983 3.959696 -42.490617 -0.000001 0.000001 0.000003 2.434378 7.296043 -69.364075 3.297842 5.266364 -64.088662 0.787102 2.934908 -30.019569 0.000001 -0.000001 0.000004 -3.532567 4.254353 -63.954592 3.402101 5.315522 -65.218929 1.034632 3.326102 -34.549853 0.000000 -0.000002 -0.000002 0.747688 18.526420 11.539868 9.993128 25.212706 39.777318 0.000178 96.709489 -0.000108 -33.553543 -20.990910 23.717116 20.470552 7.475583 18.843587 4.151721 -12.160927 -33.847996 -6.346163 -41.944024 -36.535488 0.000000 0.000000 0.000001 -0.887081 1.428000 12.684527 1.917419 -3.767465 53.934309 3.057985 -4.374551 69.896782 -0.000001 0.000000 0.000001 0.770904 -5.199593 54.618827 5.563878 -4.568235 101.238594 4.771458 -4.655761 91.407896 0.000002 -0.000000 -0.000004 6.934476 -8.544289 63.908775 2.909304 -4.317401 67.934721 1.862850 -3.727194 53.099455 -0.000001 0.000001 -0.000003 8.373403 -8.171736 73.989937 2.173680 -3.940965 57.745397 1.042021 -2.937907 39.049882 -0.000002 -0.000000 0.000002 -13.346613 10.993872 7.194797 19.389176 4.822641 0.822936 2.284038 3.762192 -7.758254 -0.000029 0.000002 -0.000002 -0.000000 0.000000 0.000000 7.145752 -15.066986 -9.057970 24.638258 -6.593056 -2.493896 -24.096983 -8.515000 10.454561 -2.342325 -0.000002 0.000001 0.000000 0.000000 0.000000 
